<svg xmlns="http://www.w3.org/2000/svg" viewBox="0 0 512 512"><title>Artboard 109</title><g id="Afro_Young_Man" data-name="Afro Young Man"><rect x="298.66667" y="341.33333" width="85.33333" height="21.33333" style="fill:#c6262d"/><rect x="128" y="341.33333" width="256" height="64" style="fill:#e08a8e"/><rect x="277.33333" y="341.33333" width="106.66667" height="64" style="fill:#c6262d"/><rect x="341.33333" y="192" width="42.66667" height="64" rx="21.33331" ry="21.33331" style="fill:#361200"/><rect x="128" y="192" width="42.66667" height="64" rx="21.33331" ry="21.33331" style="fill:#552a1f"/><path d="M192,277.33333v64a21.33334,21.33334,0,0,1-21.33333,21.33334h-64A85.33333,85.33333,0,0,0,21.33333,448v42.66667H490.66667V448a85.33333,85.33333,0,0,0-85.33334-85.33333h-64A21.33334,21.33334,0,0,1,320,341.33333v-64Z" style="fill:#552a1f"/><rect x="149.33333" y="405.33333" width="85.33333" height="42.66667" rx="21.33331" ry="21.33331" style="fill:#8f492b"/><circle cx="213.33333" cy="426.66667" r="21.33333" style="fill:#cb7956"/><path d="M341.33333,362.66667A21.33356,21.33356,0,0,1,320,341.33333v-64H256v85.33334h21.33333V384H234.66667v21.33333a21.33333,21.33333,0,1,0,42.66666,0h85.33334V362.66667Z" style="fill:#361200"/><rect x="149.33333" y="42.66667" width="213.33333" height="298.66656" rx="106.66656" ry="106.66656" style="fill:#8f492b"/><path d="M320,64.48307v84.85026H277.33333v21.33334H320v42.66659a21.33333,21.33333,0,0,1,21.33333,21.33333v.00008A21.33333,21.33333,0,0,1,320,256H256v64h21.33333v19.18359a106.69065,106.69065,0,0,0,85.33334-104.51692V149.33333C362.66667,114.54948,345.76562,83.95443,320,64.48307Z" style="fill:#552a1f"/><path d="M170.66667,85.33333H192S213.33333,128,256,128s64-42.66667,64-42.66667h21.33333v128h21.33334V192L384,170.66667V149.33321A127.99987,127.99987,0,0,0,256.00013,21.33333h-.00026A127.99987,127.99987,0,0,0,128,149.33321v21.33346L149.33333,192v21.33333h21.33334v-128Z" style="fill:#062d3c"/><polygon points="234.667 234.667 234.667 256 277.333 256 277.333 192 320 192 320 170.667 256 170.667 256 234.667 234.667 234.667" style="fill:#361200"/><rect x="298.66667" y="192" width="21.33333" height="21.33333" style="fill:#290300"/><rect x="192" y="192" width="21.33333" height="21.33333" style="fill:#290300"/><rect x="234.66667" y="277.33333" width="42.66667" height="21.33333" style="fill:#c6262d"/><path d="M405.33333,362.66667h-64a85.33333,85.33333,0,1,1-170.66666,0h-64A85.33255,85.33255,0,0,0,21.33333,448v42.66667H490.66667V448A85.33255,85.33255,0,0,0,405.33333,362.66667Z" style="fill:#caecf6"/><path d="M192,405.33333v85.33334H21.33333V448a85.33333,85.33333,0,0,1,85.33334-85.33333h42.66666Z" style="fill:#c6262d"/><path d="M21.33333,448v42.66667H42.66667V392.09635A84.62309,84.62309,0,0,0,21.33333,448Z" style="fill:#cb393f"/><path d="M170.66667,384l-21.33334-21.33333H106.66667A84.62308,84.62308,0,0,0,50.763,384Z" style="fill:#cb393f"/><path d="M106.66667,362.66667a84.60519,84.60519,0,0,0-21.33334,3.01692V490.66667H128v-128Z" style="fill:#cb393f"/><path d="M106.66667,362.66667a84.60519,84.60519,0,0,0-21.33334,3.01692V384H128V362.66667Z" style="fill:#ab0008"/><path d="M21.33333,448v21.33333H192V426.66667H24.35026A84.60511,84.60511,0,0,0,21.33333,448Z" style="fill:#cb393f"/><path d="M42.66667,426.66667H24.35026A84.60511,84.60511,0,0,0,21.33333,448v21.33333H42.66667Z" style="fill:#ab0008"/><path d="M64,490.66667H42.66667V448a64.07,64.07,0,0,1,64-64v21.33333A42.71555,42.71555,0,0,0,64,448Z" style="fill:#ce464d"/><rect x="85.33333" y="426.66667" width="42.66667" height="42.66667" transform="translate(-341.33333 554.66667) rotate(-90)" style="fill:#ab0008"/><path d="M256,490.66667V469.33333A106.79223,106.79223,0,0,0,362.66667,362.66667H384A128.14,128.14,0,0,1,256,490.66667Z" style="fill:#95daec"/><path d="M320,405.33333v85.33334H490.66667V448a85.33333,85.33333,0,0,0-85.33334-85.33333H362.66667Z" style="fill:#ab0008"/><path d="M469.33333,490.66667h21.33334V448a84.62309,84.62309,0,0,0-21.33334-55.90365Z" style="fill:#c6262d"/><path d="M461.237,384a84.62308,84.62308,0,0,0-55.90365-21.33333H362.66667L341.33333,384Z" style="fill:#c6262d"/><path d="M320,426.66667v42.66666H490.66667V448a84.60511,84.60511,0,0,0-3.01693-21.33333Z" style="fill:#c6262d"/><path d="M426.66667,490.66667V365.68359a84.60519,84.60519,0,0,0-21.33334-3.01692H384v128Z" style="fill:#c6262d"/><path d="M426.66667,365.68359a84.60519,84.60519,0,0,0-21.33334-3.01692H384V384h42.66667Z" style="fill:#95070c"/><rect x="384" y="426.66667" width="42.66667" height="42.66667" style="fill:#95070c"/><polygon points="405.333 426.667 341.333 490.667 320 490.667 320 405.333 362.667 362.667 405.333 362.667 405.333 426.667" style="fill:#95070c"/><polygon points="384 341.333 405.333 362.667 405.333 405.333 341.333 384 384 341.333" style="fill:#cb393f"/><rect x="128" y="341.33333" width="21.33333" height="21.33333" style="fill:#ce464d"/><circle cx="160" cy="437.33333" r="10.66667" style="fill:#062d3c"/><circle cx="160" cy="480" r="10.66667" style="fill:#062d3c"/><polygon points="128 341.333 106.667 362.667 106.667 405.333 170.667 384 128 341.333" style="fill:#d7686d"/><polygon points="192 405.333 170.667 384 170.667 490.667 192 490.667 192 405.333" style="fill:#cb393f"/><rect x="170.66667" y="426.66667" width="21.33333" height="42.66667" style="fill:#ab0008"/><path d="M469.33333,426.66667v42.66666h21.33334V448a84.60511,84.60511,0,0,0-3.01693-21.33333Z" style="fill:#95070c"/><rect x="320" y="426.66667" width="21.33333" height="42.66667" style="fill:#730005"/><path d="M256,21.33333a128.25252,128.25252,0,0,0-27.1849,2.957c21.75391,6.99219,48.51823,27.18881,48.51823,61.043,0,17.9336-7.70052,31.86589-18.02343,42.26172C299.65625,125.36849,320,85.33333,320,85.33333h21.33333v128h21.33334V192L384,170.66667V149.33333A127.99966,127.99966,0,0,0,256,21.33333Z" style="fill:#012334"/><rect x="149.33333" y="85.33333" width="21.33333" height="21.33333" style="fill:#224552"/><rect x="149.33333" y="128" width="21.33333" height="21.33333" style="fill:#224552"/><rect x="341.33333" y="85.33333" width="21.33333" height="21.33333" style="fill:#062d3c"/><rect x="341.33333" y="128" width="21.33333" height="21.33333" style="fill:#062d3c"/><path d="M206.16667,80.09375l-12.45834-17.3125A105.89883,105.89883,0,0,1,256,42.66667V64A84.68707,84.68707,0,0,0,206.16667,80.09375Z" style="fill:#345460"/></g></svg>